<mxfile host="65bd71144e">
    <diagram id="MultiAgentSalesSystem" name="Multiagent AI Sales System">
        <mxGraphModel dx="1200" dy="900" grid="1" gridSize="10" guides="1" tooltips="1" connect="1" arrows="1" fold="1" page="1" pageScale="1" pageWidth="1200" pageHeight="900" math="0" shadow="0">
            <root>
                <mxCell id="0"/>
                <mxCell id="1" parent="0"/>
                
                <!-- Title -->
                <mxCell id="title" value="Multiagent AI Sales System Architecture" style="rounded=0;whiteSpace=wrap;html=1;fontSize=20;fontStyle=1;fillColor=#e1d5e7;strokeColor=#9673a6;align=center;" vertex="1" parent="1">
                    <mxGeometry x="350" y="50" width="500" height="50" as="geometry"/>
                </mxCell>
                
                <!-- Customer Input -->
                <mxCell id="customer" value="Customer Request" style="rounded=1;whiteSpace=wrap;html=1;fontSize=14;fontStyle=1;fillColor=#d5e8d4;strokeColor=#82b366;" vertex="1" parent="1">
                    <mxGeometry x="100" y="200" width="120" height="60" as="geometry"/>
                </mxCell>
                
                <!-- Orchestrator Agent (Central) -->
                <mxCell id="orchestrator" value="🎯 Orchestrator Agent&lt;br&gt;&lt;br&gt;• Coordinates workflow&lt;br&gt;• Routes requests&lt;br&gt;• Manages agent communication&lt;br&gt;• Tracks process state" style="rounded=1;whiteSpace=wrap;html=1;fontSize=12;fontStyle=1;fillColor=#fff2cc;strokeColor=#d6b656;align=left;verticalAlign=top;" vertex="1" parent="1">
                    <mxGeometry x="450" y="180" width="200" height="100" as="geometry"/>
                </mxCell>
                
                <!-- Sales Agent -->
                <mxCell id="sales" value="💼 Sales Agent&lt;br&gt;&lt;br&gt;• Product recommendations&lt;br&gt;• Pricing calculations&lt;br&gt;• Customer interaction&lt;br&gt;• Quote generation" style="rounded=1;whiteSpace=wrap;html=1;fontSize=12;fontStyle=1;fillColor=#dae8fc;strokeColor=#6c8ebf;align=left;verticalAlign=top;" vertex="1" parent="1">
                    <mxGeometry x="200" y="350" width="180" height="100" as="geometry"/>
                </mxCell>
                
                <!-- Ordering Agent -->
                <mxCell id="ordering" value="📋 Ordering Agent&lt;br&gt;&lt;br&gt;• Order processing&lt;br&gt;• Inventory validation&lt;br&gt;• Payment coordination&lt;br&gt;• Order confirmation" style="rounded=1;whiteSpace=wrap;html=1;fontSize=12;fontStyle=1;fillColor=#ffe6cc;strokeColor=#d79b00;align=left;verticalAlign=top;" vertex="1" parent="1">
                    <mxGeometry x="450" y="350" width="180" height="100" as="geometry"/>
                </mxCell>
                
                <!-- Fulfillment Agent -->
                <mxCell id="fulfillment" value="📦 Fulfillment Agent&lt;br&gt;&lt;br&gt;• Shipping coordination&lt;br&gt;• Delivery tracking&lt;br&gt;• Status updates&lt;br&gt;• Customer notifications" style="rounded=1;whiteSpace=wrap;html=1;fontSize=12;fontStyle=1;fillColor=#f8cecc;strokeColor=#b85450;align=left;verticalAlign=top;" vertex="1" parent="1">
                    <mxGeometry x="720" y="350" width="180" height="100" as="geometry"/>
                </mxCell>
                
                <!-- External Systems -->
                <mxCell id="database" value="🗄️ Database&lt;br&gt;(Products, Orders, Customers)" style="rounded=1;whiteSpace=wrap;html=1;fontSize=11;fillColor=#f5f5f5;strokeColor=#666666;" vertex="1" parent="1">
                    <mxGeometry x="100" y="550" width="150" height="80" as="geometry"/>
                </mxCell>
                
                <mxCell id="payment" value="💳 Payment System&lt;br&gt;(Processing, Validation)" style="rounded=1;whiteSpace=wrap;html=1;fontSize=11;fillColor=#f5f5f5;strokeColor=#666666;" vertex="1" parent="1">
                    <mxGeometry x="300" y="550" width="150" height="80" as="geometry"/>
                </mxCell>
                
                <mxCell id="inventory" value="📊 Inventory System&lt;br&gt;(Stock, Availability)" style="rounded=1;whiteSpace=wrap;html=1;fontSize=11;fillColor=#f5f5f5;strokeColor=#666666;" vertex="1" parent="1">
                    <mxGeometry x="500" y="550" width="150" height="80" as="geometry"/>
                </mxCell>
                
                <mxCell id="shipping" value="🚚 Shipping System&lt;br&gt;(Logistics, Tracking)" style="rounded=1;whiteSpace=wrap;html=1;fontSize=11;fillColor=#f5f5f5;strokeColor=#666666;" vertex="1" parent="1">
                    <mxGeometry x="700" y="550" width="150" height="80" as="geometry"/>
                </mxCell>
                
                <mxCell id="crm" value="👥 CRM System&lt;br&gt;(Customer Data)" style="rounded=1;whiteSpace=wrap;html=1;fontSize=11;fillColor=#f5f5f5;strokeColor=#666666;" vertex="1" parent="1">
                    <mxGeometry x="900" y="550" width="150" height="80" as="geometry"/>
                </mxCell>
                
                <!-- Arrows from customer to orchestrator -->
                <mxCell id="arrow1" value="" style="endArrow=classic;html=1;exitX=1;exitY=0.5;exitDx=0;exitDy=0;entryX=0;entryY=0.5;entryDx=0;entryDy=0;strokeWidth=2;strokeColor=#333333;" edge="1" parent="1" source="customer" target="orchestrator">
                    <mxGeometry width="50" height="50" relative="1" as="geometry">
                        <mxPoint x="400" y="400" as="sourcePoint"/>
                        <mxPoint x="450" y="350" as="targetPoint"/>
                    </mxGeometry>
                </mxCell>
                
                <!-- Bidirectional arrows from orchestrator to agents -->
                <mxCell id="arrow2" value="" style="endArrow=classic;startArrow=classic;html=1;exitX=0.25;exitY=1;exitDx=0;exitDy=0;entryX=0.5;entryY=0;entryDx=0;entryDy=0;strokeWidth=2;strokeColor=#d6b656;" edge="1" parent="1" source="orchestrator" target="sales">
                    <mxGeometry width="50" height="50" relative="1" as="geometry">
                        <mxPoint x="400" y="400" as="sourcePoint"/>
                        <mxPoint x="450" y="350" as="targetPoint"/>
                    </mxGeometry>
                </mxCell>
                
                <mxCell id="arrow3" value="" style="endArrow=classic;startArrow=classic;html=1;exitX=0.5;exitY=1;exitDx=0;exitDy=0;entryX=0.5;entryY=0;entryDx=0;entryDy=0;strokeWidth=2;strokeColor=#d6b656;" edge="1" parent="1" source="orchestrator" target="ordering">
                    <mxGeometry width="50" height="50" relative="1" as="geometry">
                        <mxPoint x="400" y="400" as="sourcePoint"/>
                        <mxPoint x="450" y="350" as="targetPoint"/>
                    </mxGeometry>
                </mxCell>
                
                <mxCell id="arrow4" value="" style="endArrow=classic;startArrow=classic;html=1;exitX=0.75;exitY=1;exitDx=0;exitDy=0;entryX=0.5;entryY=0;entryDx=0;entryDy=0;strokeWidth=2;strokeColor=#d6b656;" edge="1" parent="1" source="orchestrator" target="fulfillment">
                    <mxGeometry width="50" height="50" relative="1" as="geometry">
                        <mxPoint x="400" y="400" as="sourcePoint"/>
                        <mxPoint x="450" y="350" as="targetPoint"/>
                    </mxGeometry>
                </mxCell>
                
                <!-- Arrows from agents to external systems -->
                <mxCell id="arrow5" value="" style="endArrow=classic;html=1;exitX=0.5;exitY=1;exitDx=0;exitDy=0;entryX=0.5;entryY=0;entryDx=0;entryDy=0;strokeWidth=1;strokeColor=#666666;dashed=1;" edge="1" parent="1" source="sales" target="database">
                    <mxGeometry width="50" height="50" relative="1" as="geometry">
                        <mxPoint x="400" y="500" as="sourcePoint"/>
                        <mxPoint x="450" y="450" as="targetPoint"/>
                    </mxGeometry>
                </mxCell>
                
                <mxCell id="arrow6" value="" style="endArrow=classic;html=1;exitX=0.5;exitY=1;exitDx=0;exitDy=0;entryX=0.5;entryY=0;entryDx=0;entryDy=0;strokeWidth=1;strokeColor=#666666;dashed=1;" edge="1" parent="1" source="ordering" target="payment">
                    <mxGeometry width="50" height="50" relative="1" as="geometry">
                        <mxPoint x="400" y="500" as="sourcePoint"/>
                        <mxPoint x="450" y="450" as="targetPoint"/>
                    </mxGeometry>
                </mxCell>
                
                <mxCell id="arrow7" value="" style="endArrow=classic;html=1;exitX=0.5;exitY=1;exitDx=0;exitDy=0;entryX=0.5;entryY=0;entryDx=0;entryDy=0;strokeWidth=1;strokeColor=#666666;dashed=1;" edge="1" parent="1" source="ordering" target="inventory">
                    <mxGeometry width="50" height="50" relative="1" as="geometry">
                        <mxPoint x="400" y="500" as="sourcePoint"/>
                        <mxPoint x="450" y="450" as="targetPoint"/>
                    </mxGeometry>
                </mxCell>
                
                <mxCell id="arrow8" value="" style="endArrow=classic;html=1;exitX=0.5;exitY=1;exitDx=0;exitDy=0;entryX=0.5;entryY=0;entryDx=0;entryDy=0;strokeWidth=1;strokeColor=#666666;dashed=1;" edge="1" parent="1" source="fulfillment" target="shipping">
                    <mxGeometry width="50" height="50" relative="1" as="geometry">
                        <mxPoint x="400" y="500" as="sourcePoint"/>
                        <mxPoint x="450" y="450" as="targetPoint"/>
                    </mxGeometry>
                </mxCell>
                
                <mxCell id="arrow9" value="" style="endArrow=classic;html=1;exitX=1;exitY=0.5;exitDx=0;exitDy=0;entryX=0;entryY=0;entryDx=0;entryDy=0;strokeWidth=1;strokeColor=#666666;dashed=1;" edge="1" parent="1" source="fulfillment" target="crm">
                    <mxGeometry width="50" height="50" relative="1" as="geometry">
                        <mxPoint x="400" y="500" as="sourcePoint"/>
                        <mxPoint x="450" y="450" as="targetPoint"/>
                    </mxGeometry>
                </mxCell>
                
                <!-- Workflow steps -->
                <mxCell id="workflow" value="Workflow Steps:&lt;br&gt;1. Customer submits request&lt;br&gt;2. Orchestrator routes to Sales Agent&lt;br&gt;3. Sales Agent provides quote&lt;br&gt;4. Orchestrator routes to Ordering Agent&lt;br&gt;5. Ordering Agent processes order&lt;br&gt;6. Orchestrator routes to Fulfillment Agent&lt;br&gt;7. Fulfillment Agent handles delivery" style="rounded=0;whiteSpace=wrap;html=1;fontSize=11;fillColor=#e1d5e7;strokeColor=#9673a6;align=left;verticalAlign=top;" vertex="1" parent="1">
                    <mxGeometry x="950" y="180" width="220" height="150" as="geometry"/>
                </mxCell>
                
                <!-- Legend -->
                <mxCell id="legend" value="Legend:&lt;br&gt;━━━ Agent Communication&lt;br&gt;┅┅┅ External System Access" style="rounded=0;whiteSpace=wrap;html=1;fontSize=10;fillColor=#f5f5f5;strokeColor=#666666;align=left;" vertex="1" parent="1">
                    <mxGeometry x="950" y="350" width="170" height="60" as="geometry"/>
                </mxCell>
            </root>
        </mxGraphModel>
    </diagram>
</mxfile>
